<?xml version="1.0" standalone="no"?><svg xmlns="http://www.w3.org/2000/svg" viewBox="0 0 1440 320"><path fill="#ffffff" fill-opacity="1" d="M0,32L34.3,37.3C68.6,43,137,53,206,80C274.3,107,343,149,411,176C480,203,549,213,617,192C685.7,171,754,117,823,112C891.4,107,960,149,1029,192C1097.1,235,1166,277,1234,245.3C1302.9,213,1371,107,1406,53.3L1440,0L1440,320L1405.7,320C1371.4,320,1303,320,1234,320C1165.7,320,1097,320,1029,320C960,320,891,320,823,320C754.3,320,686,320,617,320C548.6,320,480,320,411,320C342.9,320,274,320,206,320C137.1,320,69,320,34,320L0,320Z"></path></svg>